<svg xmlns="http://www.w3.org/2000/svg" xmlns:xlink="http://www.w3.org/1999/xlink" width="500" zoomAndPan="magnify" viewBox="0 0 375 374.999991" height="500" preserveAspectRatio="xMidYMid meet" version="1.0"><defs><g/><clipPath id="467d1d0046"><path d="M 0.160156 77 L 189 77 L 189 301 L 0.160156 301 Z M 0.160156 77 " clip-rule="nonzero"/></clipPath><clipPath id="b8714b3e9b"><rect x="0" width="194" y="0" height="330"/></clipPath><clipPath id="613e3b6047"><rect x="0" width="161" y="0" height="330"/></clipPath></defs><g transform="matrix(1, 0, 0, 1, 14, 0)"><g clip-path="url(#b8714b3e9b)"><g clip-path="url(#467d1d0046)"><g fill="#0e0247" fill-opacity="1"><g transform="translate(0.772562, 300.708071)"><g><path d="M 184.890625 -223.421875 C 186.929688 -223.421875 187.953125 -222.582031 187.953125 -220.90625 L 187.953125 -2.515625 C 187.953125 -0.835938 186.929688 0 184.890625 0 L 148.015625 0 C 147.828125 0 147.40625 -0.09375 146.75 -0.28125 C 146.101562 -0.46875 145.6875 -0.65625 145.5 -0.84375 L 42.734375 -148.015625 L 42.734375 -53.625 L 0 -53.625 L 0 -220.90625 C 0 -222.582031 0.929688 -223.421875 2.796875 -223.421875 L 39.9375 -223.421875 C 40.3125 -223.421875 40.773438 -223.375 41.328125 -223.28125 C 41.890625 -223.1875 42.265625 -222.957031 42.453125 -222.59375 L 145.5 -75.40625 L 145.5 -220.90625 C 145.5 -222.582031 146.617188 -223.421875 148.859375 -223.421875 Z M 184.890625 -223.421875 "/></g></g></g></g></g></g><g transform="matrix(1, 0, 0, 1, 211, 0)"><g clip-path="url(#613e3b6047)"><g fill="#0e0247" fill-opacity="1"><g transform="translate(1.776127, 300.708071)"><g><path d="M 108.921875 -156.953125 C 108.921875 -163.660156 107.242188 -168.828125 103.890625 -172.453125 C 100.535156 -176.085938 96.71875 -178.695312 92.4375 -180.28125 C 88.15625 -181.863281 84.335938 -182.789062 80.984375 -183.0625 C 77.640625 -183.34375 75.96875 -183.484375 75.96875 -183.484375 L 42.453125 -183.484375 L 42.453125 -132.375 L 75.96875 -132.375 C 75.96875 -132.375 77.640625 -132.515625 80.984375 -132.796875 C 84.335938 -133.078125 88.15625 -133.960938 92.4375 -135.453125 C 96.71875 -136.941406 100.535156 -139.359375 103.890625 -142.703125 C 107.242188 -146.054688 108.921875 -150.804688 108.921875 -156.953125 Z M 151.65625 -159.46875 C 151.65625 -146.4375 148.628906 -136.101562 142.578125 -128.46875 C 136.523438 -120.832031 129.21875 -115.25 120.65625 -111.71875 C 129.59375 -108.738281 136.382812 -104.6875 141.03125 -99.5625 C 145.6875 -94.445312 148.992188 -89.234375 150.953125 -83.921875 C 152.910156 -78.617188 154.023438 -74.148438 154.296875 -70.515625 C 154.578125 -66.890625 154.71875 -65.078125 154.71875 -65.078125 C 154.71875 -52.597656 152.53125 -42.351562 148.15625 -34.34375 C 143.78125 -26.34375 138.191406 -20.015625 131.390625 -15.359375 C 124.597656 -10.703125 117.523438 -7.253906 110.171875 -5.015625 C 102.816406 -2.785156 96.019531 -1.390625 89.78125 -0.828125 C 83.550781 -0.273438 78.945312 0 75.96875 0 L 42.734375 0 L 42.734375 -40.78125 L 75.96875 -40.78125 C 80.625 -40.78125 85.742188 -41.382812 91.328125 -42.59375 C 96.910156 -43.800781 101.75 -46.265625 105.84375 -49.984375 C 109.9375 -53.710938 111.984375 -59.113281 111.984375 -66.1875 C 111.984375 -71.40625 110.773438 -75.640625 108.359375 -78.890625 C 105.941406 -82.148438 102.960938 -84.617188 99.421875 -86.296875 C 95.890625 -87.972656 92.304688 -89.085938 88.671875 -89.640625 C 85.035156 -90.203125 82.007812 -90.53125 79.59375 -90.625 C 77.175781 -90.71875 75.96875 -90.765625 75.96875 -90.765625 L 0 -90.765625 L 0 -220.90625 C 0 -222.582031 1.023438 -223.421875 3.078125 -223.421875 L 75.96875 -223.421875 C 75.96875 -223.421875 77.78125 -223.328125 81.40625 -223.140625 C 85.039062 -222.953125 89.742188 -222.347656 95.515625 -221.328125 C 101.285156 -220.304688 107.378906 -218.535156 113.796875 -216.015625 C 120.222656 -213.503906 126.320312 -209.921875 132.09375 -205.265625 C 137.863281 -200.617188 142.566406 -194.570312 146.203125 -187.125 C 149.835938 -179.675781 151.65625 -170.457031 151.65625 -159.46875 Z M 151.65625 -159.46875 "/></g></g></g></g></g></svg>